<svg width="100" height="47" viewBox="0 0 100 47" fill="none" xmlns="http://www.w3.org/2000/svg">
<path d="M6.4477 2.23222C7.34589 2.23222 8.15586 2.32043 8.87761 2.49686C9.61541 2.65725 10.2891 2.88982 10.8985 3.19456L10.2249 5.45607C9.56729 5.13529 8.94177 4.8947 8.34833 4.73431C7.75488 4.57392 7.16946 4.49372 6.59205 4.49372C5.77406 4.49372 5.1325 4.66213 4.66736 4.99895C4.21827 5.33577 3.99372 5.79289 3.99372 6.37029C3.99372 6.93166 4.17817 7.36471 4.54707 7.66946C4.93201 7.95816 5.54149 8.23884 6.37552 8.51151L7.8431 8.99268C9.09414 9.40969 10.0485 9.9871 10.7061 10.7249C11.3637 11.4627 11.6925 12.3368 11.6925 13.3473C11.6925 14.0049 11.5642 14.6063 11.3075 15.1517C11.0509 15.697 10.682 16.1782 10.2008 16.5952C9.71967 16.9962 9.12622 17.3089 8.4205 17.5335C7.73082 17.758 6.94491 17.8703 6.06276 17.8703C5.19665 17.8703 4.3546 17.7901 3.53661 17.6297C2.71862 17.4533 1.93271 17.1806 1.17887 16.8117L1.85251 14.5743C2.54219 14.9111 3.21583 15.1677 3.87343 15.3441C4.53103 15.5206 5.22071 15.6088 5.94247 15.6088C6.80858 15.6088 7.48222 15.4404 7.96339 15.1036C8.4606 14.7667 8.7092 14.2775 8.7092 13.636C8.7092 13.4114 8.66911 13.1949 8.58891 12.9864C8.50872 12.7779 8.36437 12.5854 8.15586 12.409C7.96339 12.2165 7.69073 12.0401 7.33787 11.8797C7.00105 11.7033 6.55997 11.5268 6.01464 11.3504L4.66736 10.8933C3.56067 10.5084 2.6705 10.0031 1.99686 9.37761C1.33926 8.73605 1.01046 7.83787 1.01046 6.68305C1.01046 5.35181 1.47559 4.2772 2.40586 3.4592C3.33612 2.64121 4.6834 2.23222 6.4477 2.23222Z" fill="#C8C8C8"/>
<path d="M22.9848 12.5533H15.2139V12.6496C15.2139 13.6921 15.5346 14.47 16.1762 14.9833C16.8338 15.4965 17.6919 15.7531 18.7505 15.7531C19.376 15.7531 19.9293 15.697 20.4105 15.5847C20.9077 15.4725 21.3809 15.3201 21.83 15.1276L22.3833 17.1245C21.9182 17.333 21.3648 17.5094 20.7233 17.6538C20.0817 17.7981 19.3359 17.8703 18.4858 17.8703C17.6357 17.8703 16.8338 17.758 16.08 17.5335C15.3422 17.3089 14.6926 16.9561 14.1312 16.4749C13.5699 15.9937 13.1208 15.3842 12.7839 14.6464C12.4632 13.9086 12.3028 13.0265 12.3028 12C12.3028 11.1018 12.4391 10.2838 12.7118 9.54602C12.9844 8.80823 13.3694 8.17469 13.8666 7.6454C14.3638 7.11611 14.9652 6.70711 15.671 6.41841C16.3767 6.12971 17.1546 5.98535 18.0047 5.98535C19.5284 5.98535 20.7393 6.45049 21.6375 7.38075C22.5357 8.31102 22.9848 9.60216 22.9848 11.2542V12.5533ZM20.0737 10.5805C20.0737 10.2437 20.0336 9.92294 19.9534 9.6182C19.8732 9.29742 19.7449 9.01674 19.5685 8.77615C19.392 8.53556 19.1595 8.35111 18.8708 8.2228C18.5981 8.07845 18.2693 8.00628 17.8844 8.00628C17.1626 8.00628 16.5692 8.24686 16.104 8.72803C15.6389 9.2092 15.3582 9.84275 15.262 10.6287L20.0737 10.5805Z" fill="#C8C8C8"/>
<path d="M24.1076 17.6297V6.20188H26.297L26.6578 8.3431C26.9305 7.68549 27.3636 7.13215 27.957 6.68305C28.5504 6.21792 29.2882 5.98535 30.1704 5.98535C30.5553 5.98535 30.8922 6.02545 31.1809 6.10565C31.4696 6.18584 31.7101 6.27406 31.9026 6.37029L31.4214 8.67992C31.245 8.58368 31.0285 8.50349 30.7719 8.43933C30.5152 8.35913 30.2025 8.31904 29.8336 8.31904C29.0156 8.31904 28.3259 8.59972 27.7645 9.16109C27.2032 9.72245 26.9225 10.6126 26.9225 11.8316V17.6297H24.1076Z" fill="#C8C8C8"/>
<path d="M40.0053 7.91004L34.4477 15.5607H40.1256V17.6297H31.1758V15.8494L36.7574 8.27092H31.5367V6.20188H40.0053V7.91004ZM32.1381 1.02929H34.3275L35.8913 2.92992L37.4551 1.02929H39.7406L36.8055 4.37343H35.0252L32.1381 1.02929Z" fill="#C8C8C8"/>
<path d="M41.1364 7.21234C41.8421 6.82741 42.5559 6.53068 43.2776 6.32218C43.9994 6.09763 44.7933 5.98535 45.6594 5.98535C46.3331 5.98535 46.9425 6.06555 47.4879 6.22594C48.0332 6.37029 48.5064 6.61088 48.9073 6.9477C49.3083 7.28452 49.613 7.72559 49.8215 8.27092C50.0461 8.80021 50.1584 9.44979 50.1584 10.2197V17.6297H47.9209L47.6322 16.4268H47.56C46.7421 17.3891 45.5792 17.8703 44.0716 17.8703C42.8686 17.8703 41.9303 17.5575 41.2567 16.932C40.5831 16.2904 40.2462 15.4644 40.2462 14.454C40.2462 13.8124 40.3826 13.2591 40.6552 12.7939C40.9279 12.3288 41.2968 11.9439 41.7619 11.6391C42.2431 11.3344 42.8125 11.1098 43.4701 10.9655C44.1277 10.8051 44.8414 10.7249 45.6113 10.7249H47.2954V9.93096C47.2954 9.30544 47.111 8.86436 46.7421 8.60774C46.3732 8.33508 45.8759 8.19874 45.2504 8.19874C44.8013 8.19874 44.3202 8.27092 43.8069 8.41527C43.3097 8.55962 42.7564 8.80823 42.1469 9.16109L41.1364 7.21234ZM47.3195 12.5293L46.0203 12.5774C44.9617 12.6095 44.2239 12.7939 43.8069 13.1308C43.3899 13.4515 43.1814 13.8445 43.1814 14.3096C43.1814 14.9031 43.3578 15.304 43.7107 15.5126C44.0635 15.7211 44.4725 15.8253 44.9377 15.8253C45.4028 15.8253 45.8439 15.713 46.2609 15.4885C46.6939 15.2479 47.0468 14.9191 47.3195 14.5021V12.5293ZM46.2849 4.37343H44.1918L45.8759 0.908995H48.8351L46.2849 4.37343Z" fill="#C8C8C8"/>
<path d="M54.6333 13.6841V17.6297H51.8184V0.5H54.6333V10.8211L58.7232 6.20188H62.1877L57.6887 11.0136L62.3801 17.6297H59.036L55.6437 12.6736L54.6333 13.6841Z" fill="#C8C8C8"/>
<path d="M0 21.2385H99.8431V46.5H0V21.2385Z" fill="#CBED4E"/>
<path d="M7.79658 42.6204H4.95766V31.1926H7.147L7.50787 32.7083C8.03716 32.179 8.60655 31.762 9.21603 31.4573C9.82552 31.1365 10.5312 30.9761 11.3332 30.9761C12.1351 30.9761 12.8088 31.1365 13.3541 31.4573C13.8994 31.762 14.3084 32.2031 14.5811 32.7805C15.1264 32.2191 15.7279 31.778 16.3855 31.4573C17.0431 31.1365 17.7648 30.9761 18.5508 30.9761C19.7537 30.9761 20.6679 31.3049 21.2934 31.9625C21.919 32.6201 22.2317 33.5584 22.2317 34.7773V42.6204H19.3928V35.1623C19.3928 34.5528 19.2485 34.0716 18.9598 33.7188C18.6711 33.3659 18.23 33.1895 17.6365 33.1895C17.1714 33.1895 16.7063 33.3017 16.2411 33.5263C15.776 33.7508 15.359 34.0716 14.9901 34.4886C15.0061 34.6009 15.0141 34.7052 15.0141 34.8014C15.0141 34.8816 15.0141 34.9778 15.0141 35.0901V42.6204H12.1752V35.1623C12.1752 34.5528 12.0309 34.0716 11.7422 33.7188C11.4535 33.3659 11.0124 33.1895 10.419 33.1895C9.95383 33.1895 9.4887 33.3178 9.02356 33.5744C8.57447 33.815 8.16547 34.1518 7.79658 34.5849V42.6204Z" fill="#FEFFFC"/>
<path d="M24.2226 32.2031C24.9283 31.8181 25.642 31.5214 26.3638 31.3129C27.0855 31.0884 27.8795 30.9761 28.7456 30.9761C29.4192 30.9761 30.0287 31.0563 30.574 31.2167C31.1194 31.361 31.5925 31.6016 31.9935 31.9384C32.3945 32.2752 32.6992 32.7163 32.9077 33.2616C33.1323 33.7909 33.2445 34.4405 33.2445 35.2104V42.6204H31.0071L30.7184 41.4175H30.6462C29.8282 42.3798 28.6654 42.861 27.1577 42.861C25.9548 42.861 25.0165 42.5483 24.3429 41.9227C23.6692 41.2812 23.3324 40.4552 23.3324 39.4447C23.3324 38.8031 23.4687 38.2498 23.7414 37.7847C24.0141 37.3195 24.383 36.9346 24.8481 36.6298C25.3293 36.3251 25.8986 36.1006 26.5563 35.9562C27.2139 35.7958 27.9276 35.7156 28.6975 35.7156H30.3816V34.9217C30.3816 34.2962 30.1971 33.8551 29.8282 33.5985C29.4593 33.3258 28.9621 33.1895 28.3366 33.1895C27.8875 33.1895 27.4063 33.2616 26.8931 33.406C26.3959 33.5504 25.8425 33.799 25.233 34.1518L24.2226 32.2031ZM30.4056 37.52L29.1065 37.5681C28.0479 37.6002 27.3101 37.7847 26.8931 38.1215C26.4761 38.4423 26.2675 38.8352 26.2675 39.3004C26.2675 39.8938 26.444 40.2948 26.7968 40.5033C27.1497 40.7118 27.5587 40.816 28.0238 40.816C28.489 40.816 28.93 40.7038 29.347 40.4792C29.7801 40.2386 30.133 39.9098 30.4056 39.4928V37.52Z" fill="#FEFFFC"/>
<path d="M34.8565 42.6204V31.1926H37.0458L37.4067 33.3338C37.6793 32.6762 38.1124 32.1229 38.7058 31.6738C39.2993 31.2086 40.0371 30.9761 40.9192 30.9761C41.3042 30.9761 41.641 31.0162 41.9297 31.0964C42.2184 31.1766 42.459 31.2648 42.6514 31.361L42.1703 33.6706C41.9938 33.5744 41.7773 33.4942 41.5207 33.4301C41.2641 33.3499 40.9513 33.3098 40.5824 33.3098C39.7644 33.3098 39.0747 33.5904 38.5134 34.1518C37.952 34.7132 37.6713 35.6033 37.6713 36.8223V42.6204H34.8565Z" fill="#FEFFFC"/>
<path d="M45.7499 38.6748V42.6204H42.9351V25.4907H45.7499V35.8119L49.8399 31.1926H53.3043L48.8054 36.0043L53.4968 42.6204H50.1526L46.7604 37.6644L45.7499 38.6748Z" fill="#FEFFFC"/>
<path d="M63.4403 37.5441H55.6694V37.6403C55.6694 38.6828 55.9902 39.4607 56.6317 39.974C57.2893 40.4872 58.1474 40.7439 59.206 40.7439C59.8315 40.7439 60.3849 40.6877 60.866 40.5755C61.3632 40.4632 61.8364 40.3108 62.2855 40.1183L62.8388 42.1152C62.3737 42.3237 61.8204 42.5001 61.1788 42.6445C60.5372 42.7888 59.7914 42.861 58.9413 42.861C58.0913 42.861 57.2893 42.7487 56.5355 42.5242C55.7977 42.2997 55.1481 41.9468 54.5867 41.4656C54.0254 40.9844 53.5763 40.375 53.2395 39.6372C52.9187 38.8994 52.7583 38.0172 52.7583 36.9907C52.7583 36.0925 52.8946 35.2745 53.1673 34.5368C53.44 33.799 53.8249 33.1654 54.3221 32.6361C54.8193 32.1068 55.4208 31.6978 56.1265 31.4091C56.8322 31.1204 57.6101 30.9761 58.4602 30.9761C59.9839 30.9761 61.1948 31.4412 62.093 32.3715C62.9912 33.3017 63.4403 34.5929 63.4403 36.2449V37.5441ZM60.5292 35.5713C60.5292 35.2345 60.4891 34.9137 60.4089 34.6089C60.3287 34.2881 60.2004 34.0075 60.024 33.7669C59.8476 33.5263 59.615 33.3418 59.3263 33.2135C59.0536 33.0692 58.7248 32.997 58.3399 32.997C57.6181 32.997 57.0247 33.2376 56.5596 33.7188C56.0944 34.1999 55.8137 34.8335 55.7175 35.6194L60.5292 35.5713Z" fill="#FEFFFC"/>
<path d="M71.1312 33.2616H67.9795V38.9876C67.9795 39.5329 68.1078 39.9098 68.3644 40.1183C68.6371 40.3108 68.9819 40.407 69.3989 40.407C69.7197 40.407 70.0565 40.375 70.4094 40.3108C70.7623 40.2467 71.059 40.1584 71.2996 40.0462L71.7326 42.0671C71.4279 42.1954 71.0109 42.3237 70.4816 42.452C69.9683 42.5643 69.415 42.6204 68.8215 42.6204C67.5224 42.6204 66.5841 42.3558 66.0067 41.8265C65.4453 41.2972 65.1646 40.5033 65.1646 39.4447V33.2616H63.4324V31.1926H65.1646V27.6319H67.9795V31.1926H71.1312V33.2616ZM73.1521 27.9447C72.7992 27.8645 72.4865 27.6961 72.2138 27.4395C71.9411 27.1828 71.8048 26.838 71.8048 26.405C71.8048 25.9879 71.9411 25.6271 72.2138 25.3223C72.4865 25.0176 72.8714 24.8652 73.3686 24.8652C73.5611 24.8652 73.7616 24.9053 73.9701 24.9855C74.1946 25.0657 74.3951 25.202 74.5715 25.3945C74.764 25.5709 74.9164 25.8035 75.0286 26.0922C75.1409 26.3809 75.1971 26.7338 75.1971 27.1508C75.1971 27.5678 75.1249 27.9768 74.9805 28.3778C74.8362 28.7787 74.6357 29.1637 74.3791 29.5326C74.1385 29.8854 73.8498 30.2062 73.513 30.4949C73.1922 30.7836 72.8554 31.0242 72.5025 31.2167L71.8048 30.2543C72.2378 30.0137 72.6228 29.693 72.9596 29.292C73.2964 28.875 73.4969 28.4499 73.5611 28.0169L73.1521 27.9447Z" fill="#FEFFFC"/>
<path d="M74.8302 32.2031C75.5359 31.8181 76.2496 31.5214 76.9714 31.3129C77.6931 31.0884 78.4871 30.9761 79.3532 30.9761C80.0268 30.9761 80.6363 31.0563 81.1816 31.2167C81.727 31.361 82.2001 31.6016 82.6011 31.9384C83.0021 32.2752 83.3068 32.7163 83.5153 33.2616C83.7399 33.7909 83.8521 34.4405 83.8521 35.2104V42.6204H81.6147L81.326 41.4175H81.2538C80.4358 42.3798 79.273 42.861 77.7653 42.861C76.5624 42.861 75.6241 42.5483 74.9505 41.9227C74.2768 41.2812 73.94 40.4552 73.94 39.4447C73.94 38.8031 74.0763 38.2498 74.349 37.7847C74.6217 37.3195 74.9905 36.9346 75.4557 36.6298C75.9369 36.3251 76.5062 36.1006 77.1638 35.9562C77.8214 35.7958 78.5352 35.7156 79.3051 35.7156H80.9892V34.9217C80.9892 34.2962 80.8047 33.8551 80.4358 33.5985C80.0669 33.3258 79.5697 33.1895 78.9442 33.1895C78.4951 33.1895 78.0139 33.2616 77.5007 33.406C77.0035 33.5504 76.4501 33.799 75.8406 34.1518L74.8302 32.2031ZM81.0132 37.52L79.7141 37.5681C78.6555 37.6002 77.9177 37.7847 77.5007 38.1215C77.0836 38.4423 76.8751 38.8352 76.8751 39.3004C76.8751 39.8938 77.0516 40.2948 77.4044 40.5033C77.7573 40.7118 78.1663 40.816 78.6314 40.816C79.0965 40.816 79.5376 40.7038 79.9546 40.4792C80.3877 40.2386 80.7405 39.9098 81.0132 39.4928V37.52ZM79.9787 29.3642H77.8856L79.5697 25.8997H82.5289L79.9787 29.3642Z" fill="#FEFFFC"/>
<path d="M88.327 38.6748V42.6204H85.5122V25.4907H88.327V35.8119L92.417 31.1926H95.8814L91.3825 36.0043L96.0739 42.6204H92.7297L89.3375 37.6644L88.327 38.6748Z" fill="#FEFFFC"/>
</svg>
