<svg width="262" height="41" viewBox="0 0 262 41" fill="none" xmlns="http://www.w3.org/2000/svg">
<path d="M102.928 0.5H261.023V40.5H102.928V0.5Z" fill="#CBED4E"/>
<path d="M115.273 34.357H110.778V16.2617H114.245L114.816 18.6617C115.654 17.8236 116.556 17.1633 117.521 16.6808C118.486 16.1728 119.604 15.9189 120.873 15.9189C122.143 15.9189 123.21 16.1728 124.074 16.6808C124.937 17.1633 125.585 17.8617 126.016 18.776C126.88 17.8871 127.832 17.1887 128.873 16.6808C129.915 16.1728 131.058 15.9189 132.302 15.9189C134.207 15.9189 135.654 16.4395 136.645 17.4808C137.635 18.522 138.131 20.0077 138.131 21.9379V34.357H133.635V22.5474C133.635 21.5824 133.407 20.8204 132.95 20.2617C132.493 19.703 131.794 19.4236 130.854 19.4236C130.118 19.4236 129.381 19.6014 128.645 19.957C127.908 20.3125 127.248 20.8204 126.664 21.4808C126.689 21.6585 126.702 21.8236 126.702 21.976C126.702 22.103 126.702 22.2554 126.702 22.4331V34.357H122.207V22.5474C122.207 21.5824 121.978 20.8204 121.521 20.2617C121.064 19.703 120.366 19.4236 119.426 19.4236C118.689 19.4236 117.953 19.6268 117.216 20.0331C116.505 20.4141 115.858 20.9474 115.273 21.6331V34.357Z" fill="#FEFFFC"/>
<path d="M141.283 17.8617C142.4 17.2522 143.531 16.7824 144.673 16.4522C145.816 16.0966 147.074 15.9189 148.445 15.9189C149.512 15.9189 150.477 16.0458 151.34 16.2998C152.204 16.5284 152.953 16.9093 153.588 17.4427C154.223 17.976 154.705 18.6744 155.035 19.5379C155.391 20.376 155.569 21.4046 155.569 22.6236V34.357H152.026L151.569 32.4522H151.454C150.159 33.976 148.318 34.7379 145.931 34.7379C144.026 34.7379 142.54 34.2427 141.474 33.2522C140.407 32.2363 139.874 30.9284 139.874 29.3284C139.874 28.3125 140.089 27.4363 140.521 26.6998C140.953 25.9633 141.537 25.3538 142.273 24.8712C143.035 24.3887 143.937 24.0331 144.978 23.8046C146.02 23.5506 147.15 23.4236 148.369 23.4236H151.035V22.1665C151.035 21.176 150.743 20.4776 150.159 20.0712C149.575 19.6395 148.788 19.4236 147.797 19.4236C147.086 19.4236 146.324 19.5379 145.512 19.7665C144.724 19.9951 143.848 20.3887 142.883 20.9474L141.283 17.8617ZM151.074 26.2808L149.016 26.357C147.34 26.4078 146.172 26.6998 145.512 27.2331C144.851 27.7411 144.521 28.3633 144.521 29.0998C144.521 30.0395 144.8 30.6744 145.359 31.0046C145.918 31.3347 146.566 31.4998 147.302 31.4998C148.039 31.4998 148.737 31.322 149.397 30.9665C150.083 30.5855 150.642 30.0649 151.074 29.4046V26.2808Z" fill="#FEFFFC"/>
<path d="M158.121 34.357V16.2617H161.588L162.159 19.6522C162.591 18.6109 163.277 17.7347 164.216 17.0236C165.156 16.2871 166.324 15.9189 167.721 15.9189C168.331 15.9189 168.864 15.9824 169.321 16.1093C169.778 16.2363 170.159 16.376 170.464 16.5284L169.702 20.1855C169.423 20.0331 169.08 19.9062 168.674 19.8046C168.267 19.6776 167.772 19.6141 167.188 19.6141C165.893 19.6141 164.8 20.0585 163.912 20.9474C163.023 21.8363 162.578 23.2458 162.578 25.176V34.357H158.121Z" fill="#FEFFFC"/>
<path d="M175.37 28.1093V34.357H170.913V7.23315H175.37V23.576L181.846 16.2617H187.332L180.208 23.8808L187.637 34.357H182.342L176.97 26.5093L175.37 28.1093Z" fill="#FEFFFC"/>
<path d="M203.382 26.3189H191.077V26.4712C191.077 28.122 191.585 29.3538 192.601 30.1665C193.642 30.9792 195.001 31.3855 196.677 31.3855C197.668 31.3855 198.544 31.2966 199.306 31.1189C200.093 30.9411 200.842 30.6998 201.553 30.3951L202.429 33.557C201.693 33.8871 200.817 34.1665 199.801 34.3951C198.785 34.6236 197.604 34.7379 196.258 34.7379C194.912 34.7379 193.642 34.5601 192.449 34.2046C191.28 33.849 190.252 33.2903 189.363 32.5284C188.474 31.7665 187.763 30.8014 187.229 29.6331C186.722 28.4649 186.468 27.0681 186.468 25.4427C186.468 24.0204 186.683 22.7252 187.115 21.557C187.547 20.3887 188.156 19.3855 188.944 18.5474C189.731 17.7093 190.683 17.0617 191.801 16.6046C192.918 16.1474 194.15 15.9189 195.496 15.9189C197.909 15.9189 199.826 16.6554 201.249 18.1284C202.671 19.6014 203.382 21.6458 203.382 24.2617V26.3189ZM198.772 23.1951C198.772 22.6617 198.709 22.1538 198.582 21.6712C198.455 21.1633 198.252 20.7189 197.972 20.3379C197.693 19.957 197.325 19.6649 196.868 19.4617C196.436 19.2331 195.915 19.1189 195.306 19.1189C194.163 19.1189 193.223 19.4998 192.487 20.2617C191.75 21.0236 191.306 22.0268 191.153 23.2712L198.772 23.1951Z" fill="#FEFFFC"/>
<path d="M215.56 19.5379H210.569V28.6046C210.569 29.4681 210.773 30.0649 211.179 30.3951C211.611 30.6998 212.157 30.8522 212.817 30.8522C213.325 30.8522 213.858 30.8014 214.417 30.6998C214.976 30.5982 215.446 30.4585 215.826 30.2808L216.512 33.4808C216.03 33.6839 215.369 33.8871 214.531 34.0903C213.719 34.2681 212.842 34.357 211.903 34.357C209.846 34.357 208.36 33.9379 207.446 33.0998C206.557 32.2617 206.112 31.0046 206.112 29.3284V19.5379H203.369V16.2617H206.112V10.6236H210.569V16.2617H215.56V19.5379ZM218.76 11.1189C218.201 10.9919 217.706 10.7252 217.274 10.3189C216.842 9.91251 216.626 9.36648 216.626 8.68077C216.626 8.02045 216.842 7.44902 217.274 6.96648C217.706 6.48394 218.315 6.24267 219.103 6.24267C219.407 6.24267 219.725 6.30616 220.055 6.43315C220.411 6.56013 220.728 6.776 221.007 7.08077C221.312 7.36013 221.553 7.72838 221.731 8.18553C221.909 8.64267 221.998 9.2014 221.998 9.86172C221.998 10.522 221.884 11.1697 221.655 11.8046C221.426 12.4395 221.109 13.049 220.703 13.6331C220.322 14.1919 219.865 14.6998 219.331 15.157C218.823 15.6141 218.29 15.9951 217.731 16.2998L216.626 14.776C217.312 14.3951 217.922 13.8871 218.455 13.2522C218.988 12.5919 219.306 11.9189 219.407 11.2331L218.76 11.1189Z" fill="#FEFFFC"/>
<path d="M221.417 17.8617C222.534 17.2522 223.665 16.7824 224.807 16.4522C225.95 16.0966 227.207 15.9189 228.579 15.9189C229.646 15.9189 230.611 16.0458 231.474 16.2998C232.338 16.5284 233.087 16.9093 233.722 17.4427C234.357 17.976 234.839 18.6744 235.169 19.5379C235.525 20.376 235.703 21.4046 235.703 22.6236V34.357H232.16L231.703 32.4522H231.588C230.293 33.976 228.452 34.7379 226.065 34.7379C224.16 34.7379 222.674 34.2427 221.607 33.2522C220.541 32.2363 220.007 30.9284 220.007 29.3284C220.007 28.3125 220.223 27.4363 220.655 26.6998C221.087 25.9633 221.671 25.3538 222.407 24.8712C223.169 24.3887 224.071 24.0331 225.112 23.8046C226.153 23.5506 227.284 23.4236 228.503 23.4236H231.169V22.1665C231.169 21.176 230.877 20.4776 230.293 20.0712C229.709 19.6395 228.922 19.4236 227.931 19.4236C227.22 19.4236 226.458 19.5379 225.646 19.7665C224.858 19.9951 223.982 20.3887 223.017 20.9474L221.417 17.8617ZM231.207 26.2808L229.15 26.357C227.474 26.4078 226.306 26.6998 225.646 27.2331C224.985 27.7411 224.655 28.3633 224.655 29.0998C224.655 30.0395 224.934 30.6744 225.493 31.0046C226.052 31.3347 226.7 31.4998 227.436 31.4998C228.173 31.4998 228.871 31.322 229.531 30.9665C230.217 30.5855 230.776 30.0649 231.207 29.4046V26.2808ZM229.569 13.3665H226.255L228.922 7.88076H233.607L229.569 13.3665Z" fill="#FEFFFC"/>
<path d="M242.788 28.1093V34.357H238.331V7.23315H242.788V23.576L249.265 16.2617H254.75L247.627 23.8808L255.055 34.357H249.76L244.388 26.5093L242.788 28.1093Z" fill="#FEFFFC"/>
<path d="M9.08999 9.976C10.5122 9.976 11.7948 10.1157 12.9376 10.3951C14.1059 10.649 15.1725 11.0173 16.1376 11.4998L15.0709 15.0808C14.0297 14.5728 13.0392 14.1919 12.0995 13.9379C11.1598 13.6839 10.2329 13.557 9.31857 13.557C8.02333 13.557 7.00745 13.8236 6.27095 14.357C5.55983 14.8903 5.20428 15.6141 5.20428 16.5284C5.20428 17.4173 5.49634 18.103 6.08047 18.5855C6.68999 19.0427 7.65507 19.4871 8.97571 19.9189L11.2995 20.6808C13.2805 21.3411 14.7916 22.2554 15.8329 23.4236C16.8741 24.5919 17.3948 25.976 17.3948 27.576C17.3948 28.6173 17.1916 29.5697 16.7852 30.4331C16.3789 31.2966 15.7948 32.0585 15.0329 32.7189C14.2709 33.3538 13.3313 33.849 12.2138 34.2046C11.1217 34.5601 9.8773 34.7379 8.48047 34.7379C7.10904 34.7379 5.77571 34.6109 4.48047 34.357C3.18523 34.0776 1.94079 33.6458 0.747135 33.0617L1.8138 29.5189C2.90587 30.0522 3.97253 30.4585 5.0138 30.7379C6.05507 31.0173 7.14714 31.157 8.28999 31.157C9.66142 31.157 10.7281 30.8903 11.49 30.357C12.2773 29.8236 12.6709 29.049 12.6709 28.0331C12.6709 27.6776 12.6075 27.3347 12.4805 27.0046C12.3535 26.6744 12.1249 26.3697 11.7948 26.0903C11.49 25.7855 11.0582 25.5062 10.4995 25.2522C9.96619 24.9728 9.26777 24.6935 8.40428 24.4141L6.27095 23.6903C4.51856 23.0808 3.10904 22.2808 2.04237 21.2903C1.0011 20.2744 0.480469 18.8522 0.480469 17.0236C0.480469 14.9157 1.21698 13.2141 2.68999 11.9189C4.16301 10.6236 6.29634 9.976 9.08999 9.976Z" fill="#C8C8C8"/>
<path d="M35.2754 26.3189H22.9707V26.4712C22.9707 28.122 23.4786 29.3538 24.4945 30.1665C25.5357 30.9792 26.8945 31.3855 28.5707 31.3855C29.5611 31.3855 30.4373 31.2966 31.1992 31.1189C31.9865 30.9411 32.7357 30.6998 33.4468 30.3951L34.323 33.557C33.5865 33.8871 32.7103 34.1665 31.6945 34.3951C30.6786 34.6236 29.4976 34.7379 28.1516 34.7379C26.8056 34.7379 25.5357 34.5601 24.3421 34.2046C23.1738 33.849 22.1453 33.2903 21.2564 32.5284C20.3675 31.7665 19.6564 30.8014 19.123 29.6331C18.6151 28.4649 18.3611 27.0681 18.3611 25.4427C18.3611 24.0204 18.577 22.7252 19.0087 21.557C19.4405 20.3887 20.05 19.3855 20.8373 18.5474C21.6246 17.7093 22.577 17.0617 23.6945 16.6046C24.8119 16.1474 26.0437 15.9189 27.3897 15.9189C29.8024 15.9189 31.7199 16.6554 33.1421 18.1284C34.5643 19.6014 35.2754 21.6458 35.2754 24.2617V26.3189ZM30.6659 23.1951C30.6659 22.6617 30.6024 22.1538 30.4754 21.6712C30.3484 21.1633 30.1453 20.7189 29.8659 20.3379C29.5865 19.957 29.2183 19.6649 28.7611 19.4617C28.3294 19.2331 27.8087 19.1189 27.1992 19.1189C26.0564 19.1189 25.1167 19.4998 24.3802 20.2617C23.6437 21.0236 23.1992 22.0268 23.0468 23.2712L30.6659 23.1951Z" fill="#C8C8C8"/>
<path d="M37.0534 34.357V16.2617H40.5201L41.0915 19.6522C41.5232 18.6109 42.209 17.7347 43.1486 17.0236C44.0883 16.2871 45.2566 15.9189 46.6534 15.9189C47.2629 15.9189 47.7963 15.9824 48.2534 16.1093C48.7105 16.2363 49.0915 16.376 49.3963 16.5284L48.6343 20.1855C48.355 20.0331 48.0121 19.9062 47.6058 19.8046C47.1994 19.6776 46.7042 19.6141 46.1201 19.6141C44.8248 19.6141 43.7328 20.0585 42.8439 20.9474C41.955 21.8363 41.5105 23.2458 41.5105 25.176V34.357H37.0534Z" fill="#C8C8C8"/>
<path d="M62.2263 18.9665L53.4263 31.0808H62.4168V34.357H48.2454V31.5379L57.0835 19.5379H48.8168V16.2617H62.2263V18.9665ZM49.7692 8.07124H53.2358L55.712 11.0808L58.1882 8.07124H61.8073L57.1596 13.3665H54.3406L49.7692 8.07124Z" fill="#C8C8C8"/>
<path d="M64.0174 17.8617C65.1348 17.2522 66.265 16.7824 67.4079 16.4522C68.5507 16.0966 69.8079 15.9189 71.1793 15.9189C72.246 15.9189 73.211 16.0458 74.0745 16.2998C74.938 16.5284 75.6872 16.9093 76.3222 17.4427C76.9571 17.976 77.4396 18.6744 77.7698 19.5379C78.1253 20.376 78.3031 21.4046 78.3031 22.6236V34.357H74.7602L74.3031 32.4522H74.1888C72.8936 33.976 71.0523 34.7379 68.665 34.7379C66.7602 34.7379 65.2745 34.2427 64.2079 33.2522C63.1412 32.2363 62.6079 30.9284 62.6079 29.3284C62.6079 28.3125 62.8237 27.4363 63.2555 26.6998C63.6872 25.9633 64.2714 25.3538 65.0079 24.8712C65.7698 24.3887 66.6714 24.0331 67.7126 23.8046C68.7539 23.5506 69.884 23.4236 71.1031 23.4236H73.7698V22.1665C73.7698 21.176 73.4777 20.4776 72.8936 20.0712C72.3095 19.6395 71.5221 19.4236 70.5317 19.4236C69.8206 19.4236 69.0587 19.5379 68.246 19.7665C67.4587 19.9951 66.5825 20.3887 65.6174 20.9474L64.0174 17.8617ZM73.8079 26.2808L71.7507 26.357C70.0745 26.4078 68.9063 26.6998 68.246 27.2331C67.5856 27.7411 67.2555 28.3633 67.2555 29.0998C67.2555 30.0395 67.5349 30.6744 68.0936 31.0046C68.6523 31.3347 69.2999 31.4998 70.0364 31.4998C70.7729 31.4998 71.4714 31.322 72.1317 30.9665C72.8174 30.5855 73.3761 30.0649 73.8079 29.4046V26.2808ZM72.1698 13.3665H68.8555L71.5221 7.88076H76.2079L72.1698 13.3665Z" fill="#C8C8C8"/>
<path d="M85.3888 28.1093V34.357H80.9317V7.23315H85.3888V23.576L91.865 16.2617H97.3507L90.2269 23.8808L97.6555 34.357H92.3602L86.9888 26.5093L85.3888 28.1093Z" fill="#C8C8C8"/>
</svg>
