<svg width="96" height="75" viewBox="0 0 96 75" fill="none" xmlns="http://www.w3.org/2000/svg">
<path d="M-0.00234313 75L20.9977 28.5L22.4977 38.4C18.8977 38.4 15.5977 37.6 12.5977 36C9.79766 34.2 7.49766 31.9 5.69766 29.1C4.09766 26.1 3.29766 22.9 3.29766 19.5C3.29766 16.1 4.09766 13 5.69766 10.2C7.49766 7.4 9.79766 5.2 12.5977 3.59999C15.5977 1.79999 18.8977 0.899991 22.4977 0.899991C26.0977 0.899991 29.2977 1.79999 32.0977 3.59999C35.0977 5.2 37.3977 7.5 38.9977 10.5C40.7977 13.3 41.6977 16.7 41.6977 20.7C41.6977 24.3 40.9977 28.2 39.5977 32.4C38.1977 36.4 35.4977 41.9 31.4977 48.9L16.7977 75H-0.00234313ZM53.9977 75L74.9977 28.5L76.4977 38.4C72.8977 38.4 69.5977 37.6 66.5977 36C63.7977 34.2 61.4977 31.9 59.6977 29.1C58.0977 26.1 57.2977 22.9 57.2977 19.5C57.2977 16.1 58.0977 13 59.6977 10.2C61.4977 7.4 63.7977 5.2 66.5977 3.59999C69.5977 1.79999 72.8977 0.899991 76.4977 0.899991C80.0977 0.899991 83.2977 1.79999 86.0977 3.59999C89.0977 5.2 91.3977 7.5 92.9977 10.5C94.7977 13.3 95.6977 16.7 95.6977 20.7C95.6977 24.3 94.9977 28.2 93.5977 32.4C92.1977 36.4 89.4977 41.9 85.4977 48.9L70.7977 75H53.9977Z" fill="#0F100C"/>
</svg>
